<?xml version="1.0" encoding="utf-8"?>
<!-- Generator: Adobe Illustrator 24.0.2, SVG Export Plug-In . SVG Version: 6.00 Build 0)  -->
<svg version="1.1" xmlns="http://www.w3.org/2000/svg" xmlns:xlink="http://www.w3.org/1999/xlink" x="0px" y="0px"
	 viewBox="0 0 842 584" style="enable-background:new 0 0 842 584;" xml:space="preserve">
<style type="text/css">
	.st0{display:none;}
	.st1{display:inline;}
</style>
<g id="Capa_1" class="st0">
	<rect x="-119" y="-248" class="st1" width="1080" height="1080"/>
</g>
<g id="Nombre">
	<g>
		<path d="M153.9,571.2h-29.8l-15.7-78.8h-0.3l-15.7,78.8H62.2L31.3,456.8H61l16.2,83.6h0.3l16.8-83.6h28l16.8,83.6h0.3l16.2-83.6
			h29.8L153.9,571.2z"/>
		<path d="M195.7,456.8H250c21.3,0,41.3,9.8,41.3,36.8c0,28.3-16.2,39.4-41.3,39.4h-24.5v38.1h-29.8V456.8z M225.5,510h20
			c9.4,0,16-3.8,16-14.3c0-10.9-6.9-15.1-16-15.1h-20V510z"/>
		<path d="M336.3,503c2.4-0.2,4.8,0.3,7.2,0.2c8.2,0,18.1-2.1,18.1-11.7c0-7.2-7-11.2-16-11.2c-11,0-17.5,5.6-17.3,15.9h-25.5
			c0.5-25,18.9-38,42.6-38c19.4,0,41.6,8.2,41.6,30.9c0,9.8-5.3,20-15.5,21.8v0.3c12.8,3.4,19.1,12.3,19.1,25.6
			c0,25.1-22.9,35.9-45.2,35.9c-25.9,0-47.4-13.3-45.6-42h25.5c-0.3,13.3,6.4,19.9,20,19.9c9.3,0,18.1-4.2,18.1-13.8
			c0-12.3-9-15.2-19.9-15.2c-2.4,0-4.8,0.2-7.2,0.3V503z"/>
		<path d="M406.3,456.8h29.8v88.7h53.3v25.6h-83.1V456.8z"/>
		<path d="M510.7,502.6v-20c15.9,0.5,31.7-5.6,33-23.1h22.6v111.6h-28.8v-68.5H510.7z"/>
		<path d="M681,497.7c-1.8-11.5-10.4-17.6-23.1-17.6c-19.2,0-26.6,16.8-26.6,33.9c0,17.1,7.4,33.9,26.6,33.9
			c14.1,0,21.9-7.8,23.1-21.1h29.8c-1.8,29.6-23.2,46.8-52.2,46.8c-34.8,0-57-26.4-57-59.6s22.3-59.6,57-59.6
			c24.8,0,51.4,15.7,52.2,43.2H681z"/>
		<path d="M722.3,515.3c0-29.9,12.2-57.2,43.7-57.2c32.7,0,45.5,27.2,45.5,57.2c0,29.8-12.8,57.3-45.5,57.3
			C734.4,572.6,722.3,545.1,722.3,515.3z M785.2,515.3c0-14.6-0.5-35.1-18.4-35.1c-17.3,0-18.3,20.5-18.3,35.1
			c0,14.6,1,35.2,18.3,35.2C784.7,550.5,785.2,529.9,785.2,515.3z"/>
	</g>
</g>
<g id="Logo">
	<g id="WP_xB4_s_1_">
		<path id="W_1_" d="M663.1,88.4c0.7-2.1,0.9-3.8,0.3-4.7c-1.6-2.9-4.6-5.1-8-2.9c-8.6,5.7-14.4,13.3-17.5,23.4
			c-0.5,2.4-0.2,3.3,0.4,3.8c0.6,0.6,0.8,2.1-0.6,4.9c-20.3,32.8-41.2,65.9-63.1,99.4c-27.9,42.7-57.1,82.8-87.9,120.4
			c-0.2,0.4-0.5,0.7-0.9,1.1c-3.6,4.6-9.7,11.3-18.1,20.3c-8.2,9.1-17,17-25.9,23.5s-16.2,8.6-21.9,5.8c-4.9-3.5-7.7-11.9-7.8-24.8
			s1.1-27.9,3.8-45.2c2.7-17.2,5.8-33.9,9.3-50.2s6.6-29.6,9.1-39.8c0.5-2.7,1.1-5.3,1.6-7.3c0.5-2.4,1.3-4.9,1.8-7.5
			c3.1-11.7,5.1-22.6,6-32.8s-1.5-17.3-7.3-21.2c-5.8-3.8-17.3-2.2-34.5,4.9c-21.3,9.7-43.8,23.7-67.3,42.5
			c-23.5,18.6-46.3,37.6-68.2,57.1c-13.7,12-26.3,23-38.1,32.7c-11.1,9.3-23.7,19.3-37.8,30.1c-13.9,10.8-27,19.7-39.6,26.8
			c-18.2,9.9,5.1-27,35.2-75.7c13.9-21.7,27.7-44.3,41.4-67.7c13.7-23.4,24.6-44.5,32.7-63.7c8-19.2,10.4-33.2,7.3-42.1
			c-4-8-11.9-11.5-23.5-10.4c-11.5,0.9-25.2,4.7-40.9,11.5c-15.5,6.8-31.4,14.6-47.6,23.9c-16.1,9.3-30.7,18.1-43.6,26.5
			c-13,8.4-22.4,14.8-28.6,19.2c-0.4,0.2-0.7,0.5-1.3,0.9c-4.2,2.7-10.9,7.7-20.6,14.8c-9.5,6.9-19.2,14.8-28.8,23.5
			c-9.7,8.6-17,17-21.5,24.8c-4.6,7.8-4.2,14,1.5,18.6c18.1,13.3,50.9-7.1,66.4-17.7c6.9-5.5,0.9-14-10-10c-3.3,1.8-3.1,2.6-2.7,4.2
			c0.5,0.9,0.4,2-1.3,3.3c-2.7,1.6-7.5,3.8-14.6,6.8c-6.9,2.9-13.9,5.3-20.8,7.1c-6.8,1.6-11.1,1.5-13.1-0.5
			c-1.8-3.1,0.2-7.8,6.2-14.4c6-6.6,13.7-13.5,23-21s18.1-14,26.3-19.7c8.2-5.8,13.5-9.7,16.1-11.3c5.3-3.5,13.9-9.3,25.9-17.2
			c12.2-7.8,25.9-16.4,41.2-25.4c15.5-9.1,30.7-17.3,45.4-24.4c15-7.3,27.7-12,38.5-14.4c10.8-2.4,17.5-0.9,20.3,4.7
			c2.6,6.8,0.5,17.9-6,33.2c-6.4,15.3-15.5,33-27.2,52.9s-23.9,40-36.7,60.4c-31.7,52-61.3,99.4-53.5,108.2
			c2.9,2.9,8.4,2.6,16.6-1.3c8.2-3.6,17.5-8.9,27.7-16.1c10.2-6.9,19.9-13.9,28.8-21c8.9-6.9,15.7-12.2,20.3-15.9
			c0.9-0.9,1.8-1.5,2.4-2c13.5-10.9,28.1-23.4,44-37.2c21.5-19,43.6-37.4,66.2-55.1c22.6-17.7,44-31.2,64-40.3
			c12-5.5,19.9-6.8,23.7-3.6c3.8,2.9,5.1,8.2,4.2,15.7c-0.9,7.5-2.7,15.1-5.1,23.4c-0.9,3.5-1.6,6.8-2.4,9.9
			c-0.5,2.4-1.3,5.5-2.2,9.3c-2.7,10.6-5.8,24.4-9.7,41.4c-3.6,17-6.8,34.7-9.3,52.9c-2.4,18.2-3.3,34.3-2.4,48.4
			c0.9,14,4.7,23.5,11.5,28.1c21.2,13.1,64.2-38.7,74.6-51.3c31.9-38.1,62.2-78.8,91.2-122.4c23.4-35.2,45.9-70,67.3-104.5
			c0.4-0.5,0.7-0.9,1-1.4c0.2-0.5,0.7-1.1,1.3-2c2.7-4,8.1-12.2,11.4-19c0.4-0.7,0.9-1.4,1.3-2.1C662.8,90.2,663,89.3,663.1,88.4z"
			/>
		<path id="P_1_" d="M755.3,12.2c-23.9-0.5-53.5,4.4-88.7,14.8c-35.2,10.2-69,23.5-101.6,40c-32.5,16.4-56.6,33.6-72.1,51.6
			c-17.5,21.9-11.9,39,14.2,48.4c9.5,2.6,11.7-9.5,4-16.1c-3.1-2.2-3.8-0.9-4.9,0.9c-0.7,1.6-2,3.1-4.9,1.5
			c-12.6-7.8-10.4-18.1-1.6-28.3c14.8-17.3,38.1-33.8,70.1-49.6s65-28.8,99.4-38.9c34.5-10,62.9-14.8,85.8-14.4
			c70.8,3.1,51.8,60,16.2,95.8c-16.1,15.5-35.6,30.5-58.4,44.5c-22.8,14-46.3,27.2-71,39.2s-47.6,22.6-69,31.9
			c-0.5,0.2-27.4,11.1-28.8,11.7c-24.6,9.7-50.5,19.2-76.3,25.5c-6.4,1.5-5.3,6.6,1.3,5.5c25.4-6,50.2-13.7,74.6-22.6
			c4.2-1.6,16.4-6.2,24.8-9.5c23-8.9,47.4-19.5,73.2-31.7c25.7-12.2,50.5-25.9,74.4-40.9s44.3-30.8,61.5-47.6
			C819,82.1,836,15.3,755.3,12.2z"/>
		<path id="_xB4__1_" d="M803.2,277.3c3.1-8,6.9-15.9,11.1-23.5c4.2-7.7,9.1-12,14.4-13c3.5,0.7,5.8,3.5,3.1,6.9
			c-4.2,5.7-6.9,8.4-10,11.5c-1.6,1.6-3.5,3.6-5.8,6c-1.6,4-3.1,8-4.6,12c-0.5,2-1.3,3.8-2,5.7c-1.1,4-0.7,4,1.6,3.3
			c0.2-0.2,0.2-0.2,0.4-0.2c7.5-2.2,7.5,3.8,3.3,6.2c-1.3,0.7-2.7,1.1-4,1.3c-1.6,0.2-3.1,0.9-4.6,1.8c-1.6,1.3-3.5,4-4.7,6.2
			c-4.6,8.9-11.1,17.2-19.7,25c-8.6,7.8-18.6,12.4-30.3,14c-37.4,4.2,12.8-31.7,43.8-48C797.1,291.4,799.7,285.4,803.2,277.3z
			 M789.3,302.7c-9.9,4.4-44.2,30.8-40.5,30.8c4,0.2,9.9-2,17.3-6.8c7.5-4.6,14-10.2,19.7-16.8C788.2,307.1,792.4,301.6,789.3,302.7
			z"/>
		<path id="s_1_" d="M757.9,207c0.7-0.9,0.7-2,0.5-3.3c-0.2-2.2-0.2-4.4,4-5.8c15.7-1.5,8.4,6.6,3.1,11.9c-0.9,0.9-1.8,1.8-2.4,2.6
			c-0.9,1.1-1.6,2.4-2.2,3.8c-1.3,3.5-2.7,5.8-6.2,4.6C750.8,218.8,754.8,210.4,757.9,207z"/>
	</g>
</g>
<g id="D_x2F_D" class="st0">
	<g class="st1">
		<path d="M49.6,548.7l-0.9,0.9l-5.3-5.3l-5.3-7.9l-5.3-10.5l-2.6-13.3v-10.7l2.6-13.3l5.3-10.6l5.3-7.9l5.3-5.3l0.9,0.9l-5.2,5.2
			l-5.2,7.8L34,489.1l-2.6,13v10.4l2.6,13l5.2,10.4l5.2,7.8L49.6,548.7z"/>
		<path d="M104.6,509.9l-2.7,8l-2.6,5.4l-5.5,5.4l-8.1,2.6h-19v-56.3h19l8.1,2.7l5.5,5.4l2.6,5.4l2.7,8V509.9z M103.4,509.8v-13
			l-2.5-7.7l-2.6-5.1l-5-5.1l-7.7-2.5H67.8v53.9h17.7l7.7-2.5l5-5.1l2.6-5.1L103.4,509.8z"/>
		<path d="M125.5,478.4l-3.4,3.4l-3.4-3.4l3.4-3.4L125.5,478.4z M123.9,478.4l-1.8-1.8l-1.8,1.8l1.8,1.8L123.9,478.4z M122.7,530.9
			h-1.2v-36.8h1.2V530.9z"/>
		<path d="M169.6,523.1l-2.7,5.6l-8.3,2.6h-8l-8.2-2.6l-2.7-5.5l1.1-0.6l2.5,5.1l7.5,2.5h7.7l7.5-2.5l2.5-4.9v-2.3l-2.5-4.9l-5-2.5
			l-13.1-2.6l-5.5-2.8l-2.9-5.7l2.9-5.8l8.2-2.7h8l8.3,2.7l2.7,5.5l-1,0.6l-2.6-5l-7.5-2.6h-7.7l-7.5,2.6l-2.4,4.7l2.4,4.8l5.1,2.5
			l13.1,2.6l5.5,2.8l2.7,5.6V523.1z"/>
		<path d="M216.6,510.5h-31.5v4.5l2.5,7.7l5.1,5.1l5,2.5h7.6l5-2.5l5.2-5.2l0.9,0.9l-5.3,5.3l-5.5,2.6h-8.2l-5.5-2.6l-5.4-5.5
			l-2.7-8.1v-5.4l2.7-8.1l5.4-5.5l5.5-2.7h8.2l5.5,2.7l2.8,2.8l2.7,5.5V510.5z M215.4,509.3v-4.5l-2.5-5l-2.5-2.5l-5-2.6h-7.6
			l-5,2.6l-5.1,5l-2.3,7H215.4z"/>
		<path d="M262.9,530.9h-1.2v-26.2l-2.5-7.5l-4.9-2.5h-7.5l-5.1,2.6l-7.7,7.6v26h-1.2v-36.8h1.2v9.1l6.9-7l5.5-2.7h8.2l5.6,2.7
			l2.7,8.3V530.9z M262.7,476.2l-8.1,8h-3.1l-7.9-7.9h-2.2l-7.7,7.7l-0.9-0.9l8.1-8h3.1l7.9,7.9h2.2l7.7-7.7L262.7,476.2z"/>
		<path d="M315.9,515.2l-2.7,8.1l-5.4,5.5l-5.5,2.6h-8.2l-5.5-2.6l-5.4-5.5l-2.7-8.1v-5.4l2.7-8.1l5.4-5.5l5.5-2.7h8.2l5.5,2.7
			l5.4,5.5l2.7,8.1V515.2z M314.7,515v-5.1l-2.6-7.7l-5.1-5l-5-2.6h-7.6l-5,2.6l-5.1,5l-2.5,7.7v5.1l2.5,7.7l5.1,5.1l5,2.5h7.6
			l5-2.5l5.1-5.1L314.7,515z"/>
		<path d="M375.9,466.9l-47.2,81.3l-1.1-0.7l47.3-81.3L375.9,466.9z"/>
		<path d="M428.2,509.9l-2.7,8l-2.6,5.4l-5.5,5.4l-8.1,2.6h-19v-56.3h19l8.1,2.7l5.5,5.4l2.6,5.4l2.7,8V509.9z M427,509.8v-13
			l-2.5-7.7l-2.6-5.1l-5-5.1l-7.7-2.5h-17.7v53.9h17.7l7.7-2.5l5-5.1l2.6-5.1L427,509.8z"/>
		<path d="M475.2,510.5h-31.5v4.5l2.5,7.7l5.1,5.1l5,2.5h7.6l5-2.5l5.2-5.2l0.9,0.9l-5.3,5.3l-5.5,2.6h-8.2l-5.5-2.6l-5.4-5.5
			l-2.7-8.1v-5.4l2.7-8.1l5.4-5.5l5.5-2.7h8.2l5.5,2.7l2.8,2.8l2.7,5.5V510.5z M474,509.3v-4.5l-2.5-5l-2.5-2.5l-5-2.6h-7.6l-5,2.6
			l-5.1,5l-2.3,7H474z"/>
		<path d="M519.6,523.1l-2.7,5.6l-8.3,2.6h-8l-8.2-2.6l-2.7-5.5l1.1-0.6l2.5,5.1l7.5,2.5h7.7l7.5-2.5l2.5-4.9v-2.3l-2.5-4.9l-5-2.5
			l-13.1-2.6l-5.5-2.8l-2.9-5.7l2.9-5.8l8.2-2.7h8l8.3,2.7l2.7,5.5l-1,0.6l-2.6-5l-7.5-2.6h-7.7l-7.5,2.6l-2.4,4.7l2.4,4.8l5.1,2.5
			l13.1,2.6l5.5,2.8l2.7,5.6V523.1z"/>
		<path d="M566.5,530.9h-1.2v-6.5l-4.3,4.4l-5.5,2.6h-8.2l-5.5-2.6l-5.4-5.5l-2.7-8.1v-5.4l2.7-8.1l5.4-5.5l5.5-2.7h8.2l5.5,2.7
			l4.3,4.4v-6.4h1.2V530.9z M565.3,522.7v-20.5l-5-4.9l-5-2.6h-7.6l-5,2.6l-5.1,5l-2.5,7.7v5.1l2.5,7.7l5.1,5.1l5,2.5h7.6l5-2.5
			L565.3,522.7z"/>
		<path d="M607.7,494.7H600l-5.1,2.6l-5.1,5l-2.6,7.7v20.9h-1.2v-36.8h1.2v12.1l1.5-4.5l5.4-5.5l5.5-2.7h8.1V494.7z"/>
		<path d="M641.6,494.7h-7.7l-5.1,2.6l-5.1,5l-2.6,7.7v20.9H620v-36.8h1.2v12.1l1.5-4.5l5.4-5.5l5.5-2.7h8.1V494.7z"/>
		<path d="M686.5,515.2l-2.7,8.1l-5.4,5.5l-5.5,2.6h-8.2l-5.5-2.6l-5.4-5.5l-2.7-8.1v-5.4l2.7-8.1l5.4-5.5l5.5-2.7h8.2l5.5,2.7
			l5.4,5.5l2.7,8.1V515.2z M685.3,515v-5.1l-2.6-7.7l-5.1-5l-5-2.6h-7.6l-5,2.6l-5.1,5l-2.5,7.7v5.1l2.5,7.7l5.1,5.1l5,2.5h7.6
			l5-2.5l5.1-5.1L685.3,515z"/>
		<path d="M704.6,530.9h-1.2v-55.2h1.2V530.9z"/>
		<path d="M725.4,530.9h-1.2v-55.2h1.2V530.9z"/>
		<path d="M777.6,515.2l-2.7,8.1l-5.4,5.5l-5.5,2.6h-8.2l-5.5-2.6l-5.4-5.5l-2.7-8.1v-5.4l2.7-8.1l5.4-5.5l5.5-2.7h8.2l5.5,2.7
			l5.4,5.5l2.7,8.1V515.2z M776.4,515v-5.1l-2.6-7.7l-5.1-5l-5-2.6h-7.6l-5,2.6l-5.1,5l-2.5,7.7v5.1l2.5,7.7l5.1,5.1l5,2.5h7.6
			l5-2.5l5.1-5.1L776.4,515z"/>
		<path d="M811.5,512.6l-2.6,13.3l-5.3,10.5l-5.3,7.9l-5.2,5.3l-0.9-0.9l5.2-5.2l5.2-7.8l5.2-10.4l2.6-13v-10.4l-2.6-13l-5.2-10.4
			l-5.2-7.8l-5.2-5.2l0.9-0.9l5.2,5.3l5.3,7.9l5.3,10.6l2.6,13.3V512.6z"/>
	</g>
	<g class="st1">
		<path d="M5,400.8L-26.5,455l-0.7-0.5l31.5-54.2L5,400.8z"/>
		<path d="M30.9,422.1l-0.4,0.7l-8.2-4.9v9.8h-0.8v-9.8l-8.1,4.9l-0.4-0.7l8.2-4.9l-8.2-4.9l0.4-0.7l8.1,4.9v-9.8h0.8v9.8l8.2-4.9
			l0.4,0.7l-8.1,4.9L30.9,422.1z"/>
		<path d="M74.3,422.9H42.8v-0.8h31.5V422.9z M74.3,433.4H42.8v-0.8h31.5V433.4z"/>
		<path d="M119.6,422.9H88.1v-0.8h31.5V422.9z M119.6,433.4H88.1v-0.8h31.5V433.4z"/>
		<path d="M164.9,422.9h-31.5v-0.8h31.5V422.9z M164.9,433.4h-31.5v-0.8h31.5V433.4z"/>
		<path d="M210.2,422.9h-31.5v-0.8h31.5V422.9z M210.2,433.4h-31.5v-0.8h31.5V433.4z"/>
		<path d="M255.5,422.9H224v-0.8h31.5V422.9z M255.5,433.4H224v-0.8h31.5V433.4z"/>
		<path d="M300.9,422.9h-31.5v-0.8h31.5V422.9z M300.9,433.4h-31.5v-0.8h31.5V433.4z"/>
		<path d="M346.2,422.9h-31.5v-0.8h31.5V422.9z M346.2,433.4h-31.5v-0.8h31.5V433.4z"/>
		<path d="M391.5,422.9H360v-0.8h31.5V422.9z M391.5,433.4H360v-0.8h31.5V433.4z"/>
		<path d="M436.8,422.9h-31.5v-0.8h31.5V422.9z M436.8,433.4h-31.5v-0.8h31.5V433.4z"/>
		<path d="M482.1,422.9h-31.5v-0.8h31.5V422.9z M482.1,433.4h-31.5v-0.8h31.5V433.4z"/>
		<path d="M527.4,422.9h-31.5v-0.8h31.5V422.9z M527.4,433.4h-31.5v-0.8h31.5V433.4z"/>
		<path d="M572.7,422.9h-31.5v-0.8h31.5V422.9z M572.7,433.4h-31.5v-0.8h31.5V433.4z"/>
		<path d="M618,422.9h-31.5v-0.8H618V422.9z M618,433.4h-31.5v-0.8H618V433.4z"/>
		<path d="M663.4,422.9h-31.5v-0.8h31.5V422.9z M663.4,433.4h-31.5v-0.8h31.5V433.4z"/>
		<path d="M708.7,422.9h-31.5v-0.8h31.5V422.9z M708.7,433.4h-31.5v-0.8h31.5V433.4z"/>
		<path d="M754,422.9h-31.5v-0.8H754V422.9z M754,433.4h-31.5v-0.8H754V433.4z"/>
		<path d="M799.3,422.9h-31.5v-0.8h31.5V422.9z M799.3,433.4h-31.5v-0.8h31.5V433.4z"/>
		<path d="M829.1,422.1l-0.4,0.7l-8.2-4.9v9.8h-0.8v-9.8l-8.1,4.9l-0.4-0.7l8.2-4.9l-8.2-4.9l0.4-0.7l8.1,4.9v-9.8h0.8v9.8l8.2-4.9
			l0.4,0.7l-8.1,4.9L829.1,422.1z"/>
		<path d="M869.3,400.8L837.8,455l-0.7-0.5l31.5-54.2L869.3,400.8z"/>
	</g>
</g>
</svg>
